<?xml version="1.0" encoding="utf-8"?>
<!-- Generator: Adobe Illustrator 16.0.0, SVG Export Plug-In . SVG Version: 6.00 Build 0)  -->
<!DOCTYPE svg PUBLIC "-//W3C//DTD SVG 1.1//EN" "http://www.w3.org/Graphics/SVG/1.1/DTD/svg11.dtd">
<svg version="1.1" id="Layer_1" xmlns="http://www.w3.org/2000/svg" xmlns:xlink="http://www.w3.org/1999/xlink" x="0px" y="0px"
	 width="1440px" height="485.238px" viewBox="0 0 1440 485.238" enable-background="new 0 0 1440 485.238" xml:space="preserve">
<rect x="514.5" y="124.738" fill="#FFFFFF" stroke="#000000" stroke-miterlimit="10" width="439" height="360"/>
<rect x="537.5" y="208.738" fill="#FFFFFF" stroke="#000000" stroke-miterlimit="10" width="388" height="80"/>
<rect x="537.5" y="304.738" fill="#FFFFFF" stroke="#000000" stroke-miterlimit="10" width="388" height="153"/>
<text transform="matrix(1 0 0 1 690.2803 257.3613)" font-family="'MyriadPro-Regular'" font-size="36">Menu</text>
<text transform="matrix(1 0 0 1 636.1924 375.2383)" enable-background="new    "><tspan x="0" y="0" font-family="'MyriadPro-Regular'" font-size="36">Collection of </tspan><tspan x="0" y="43.2" font-family="'MyriadPro-Regular'" font-size="36">Comments</tspan></text>
<text transform="matrix(1 0 0 1 629.2461 182.7646)" font-family="'MyriadPro-Regular'" font-size="36">Widget Layout</text>
<rect x="0.5" y="124.738" fill="#FFFFFF" stroke="#000000" stroke-miterlimit="10" width="439" height="360"/>
<rect x="23.5" y="208.738" fill="#FFFFFF" stroke="#000000" stroke-miterlimit="10" width="388" height="80"/>
<rect x="23.5" y="304.738" fill="#FFFFFF" stroke="#000000" stroke-miterlimit="10" width="388" height="153"/>
<text transform="matrix(1 0 0 1 176.2803 257.3613)" font-family="'MyriadPro-Regular'" font-size="36">Menu</text>
<rect x="1000.5" y="124.738" fill="#FFFFFF" stroke="#000000" stroke-miterlimit="10" width="439" height="360"/>
<rect x="1023.5" y="208.738" fill="#FFFFFF" stroke="#000000" stroke-miterlimit="10" width="388" height="80"/>
<rect x="1023.5" y="304.738" fill="#FFFFFF" stroke="#000000" stroke-miterlimit="10" width="388" height="153"/>
<text transform="matrix(1 0 0 1 1176.2803 257.3613)" font-family="'MyriadPro-Regular'" font-size="36">Menu</text>
<text transform="matrix(1 0 0 1 618.2461 30.1328)" font-family="'MyriadPro-Regular'" font-size="36">Web Page Layout</text>
<text transform="matrix(1 0 0 1 1140.1924 375.2383)" enable-background="new    "><tspan x="0" y="0" font-family="'MyriadPro-Regular'" font-size="36">Collection of </tspan><tspan x="0" y="43.2" font-family="'MyriadPro-Regular'" font-size="36">Comments</tspan></text>
<text transform="matrix(1 0 0 1 1133.2461 182.7646)" font-family="'MyriadPro-Regular'" font-size="36">Widget Layout</text>
<text transform="matrix(1 0 0 1 128.1924 375.2383)" enable-background="new    "><tspan x="0" y="0" font-family="'MyriadPro-Regular'" font-size="36">Collection of </tspan><tspan x="0" y="43.2" font-family="'MyriadPro-Regular'" font-size="36">Comments</tspan></text>
<text transform="matrix(1 0 0 1 121.2461 182.7646)" font-family="'MyriadPro-Regular'" font-size="36">Widget Layout</text>
</svg>
